<svg width="315" height="75" viewBox="0 0 315 75" fill="none" xmlns="http://www.w3.org/2000/svg">
<path d="M75 37.5C75 58.2107 58.2107 75 37.5 75C16.7893 75 0 58.2107 0 37.5C0 16.7893 16.7893 0 37.5 0C58.2107 0 75 16.7893 75 37.5Z" fill="#EE7975"/>
<path d="M41.5 24.75C41.5 26.8211 39.8211 28.5 37.75 28.5C35.6789 28.5 34 26.8211 34 24.75C34 22.6789 35.6789 21 37.75 21C39.8211 21 41.5 22.6789 41.5 24.75Z" fill="white"/>
<path d="M41.5 37.25C41.5 39.3211 39.8211 41 37.75 41C35.6789 41 34 39.3211 34 37.25C34 35.1789 35.6789 33.5 37.75 33.5C39.8211 33.5 41.5 35.1789 41.5 37.25Z" fill="white"/>
<path d="M29.5 24.75C29.5 26.8211 27.8211 28.5 25.75 28.5C23.6789 28.5 22 26.8211 22 24.75C22 22.6789 23.6789 21 25.75 21C27.8211 21 29.5 22.6789 29.5 24.75Z" fill="white"/>
<path d="M29.5 37.25C29.5 39.3211 27.8211 41 25.75 41C23.6789 41 22 39.3211 22 37.25C22 35.1789 23.6789 33.5 25.75 33.5C27.8211 33.5 29.5 35.1789 29.5 37.25Z" fill="white"/>
<path d="M29.5 49.75C29.5 51.8211 27.8211 53.5 25.75 53.5C23.6789 53.5 22 51.8211 22 49.75C22 47.6789 23.6789 46 25.75 46C27.8211 46 29.5 47.6789 29.5 49.75Z" fill="white"/>
<path d="M53.5 24.75C53.5 26.8211 51.8211 28.5 49.75 28.5C47.6789 28.5 46 26.8211 46 24.75C46 22.6789 47.6789 21 49.75 21C51.8211 21 53.5 22.6789 53.5 24.75Z" fill="white"/>
<path d="M53.5 37.25C53.5 39.3211 51.8211 41 49.75 41C47.6789 41 46 39.3211 46 37.25C46 35.1789 47.6789 33.5 49.75 33.5C51.8211 33.5 53.5 35.1789 53.5 37.25Z" fill="white"/>
<path d="M155 37.5C155 58.2107 138.211 75 117.5 75C96.7893 75 80 58.2107 80 37.5C80 16.7893 96.7893 0 117.5 0C138.211 0 155 16.7893 155 37.5Z" fill="#EE7975"/>
<path d="M121.5 24.75C121.5 26.8211 119.821 28.5 117.75 28.5C115.679 28.5 114 26.8211 114 24.75C114 22.6789 115.679 21 117.75 21C119.821 21 121.5 22.6789 121.5 24.75Z" fill="white"/>
<path d="M121.5 37.25C121.5 39.3211 119.821 41 117.75 41C115.679 41 114 39.3211 114 37.25C114 35.1789 115.679 33.5 117.75 33.5C119.821 33.5 121.5 35.1789 121.5 37.25Z" fill="white"/>
<path d="M121.5 49.75C121.5 51.8211 119.821 53.5 117.75 53.5C115.679 53.5 114 51.8211 114 49.75C114 47.6789 115.679 46 117.75 46C119.821 46 121.5 47.6789 121.5 49.75Z" fill="white"/>
<path d="M109.5 24.75C109.5 26.8211 107.821 28.5 105.75 28.5C103.679 28.5 102 26.8211 102 24.75C102 22.6789 103.679 21 105.75 21C107.821 21 109.5 22.6789 109.5 24.75Z" fill="white"/>
<path d="M109.5 37.25C109.5 39.3211 107.821 41 105.75 41C103.679 41 102 39.3211 102 37.25C102 35.1789 103.679 33.5 105.75 33.5C107.821 33.5 109.5 35.1789 109.5 37.25Z" fill="white"/>
<path d="M109.5 49.75C109.5 51.8211 107.821 53.5 105.75 53.5C103.679 53.5 102 51.8211 102 49.75C102 47.6789 103.679 46 105.75 46C107.821 46 109.5 47.6789 109.5 49.75Z" fill="white"/>
<path d="M133.5 24.75C133.5 26.8211 131.821 28.5 129.75 28.5C127.679 28.5 126 26.8211 126 24.75C126 22.6789 127.679 21 129.75 21C131.821 21 133.5 22.6789 133.5 24.75Z" fill="white"/>
<path d="M133.5 49.75C133.5 51.8211 131.821 53.5 129.75 53.5C127.679 53.5 126 51.8211 126 49.75C126 47.6789 127.679 46 129.75 46C131.821 46 133.5 47.6789 133.5 49.75Z" fill="white"/>
<path d="M235 37.5C235 58.2107 218.211 75 197.5 75C176.789 75 160 58.2107 160 37.5C160 16.7893 176.789 0 197.5 0C218.211 0 235 16.7893 235 37.5Z" fill="#EE7975"/>
<path d="M201.5 24.75C201.5 26.8211 199.821 28.5 197.75 28.5C195.679 28.5 194 26.8211 194 24.75C194 22.6789 195.679 21 197.75 21C199.821 21 201.5 22.6789 201.5 24.75Z" fill="white"/>
<path d="M201.5 49.75C201.5 51.8211 199.821 53.5 197.75 53.5C195.679 53.5 194 51.8211 194 49.75C194 47.6789 195.679 46 197.75 46C199.821 46 201.5 47.6789 201.5 49.75Z" fill="white"/>
<path d="M189.5 24.75C189.5 26.8211 187.821 28.5 185.75 28.5C183.679 28.5 182 26.8211 182 24.75C182 22.6789 183.679 21 185.75 21C187.821 21 189.5 22.6789 189.5 24.75Z" fill="white"/>
<path d="M189.5 37.25C189.5 39.3211 187.821 41 185.75 41C183.679 41 182 39.3211 182 37.25C182 35.1789 183.679 33.5 185.75 33.5C187.821 33.5 189.5 35.1789 189.5 37.25Z" fill="white"/>
<path d="M189.5 49.75C189.5 51.8211 187.821 53.5 185.75 53.5C183.679 53.5 182 51.8211 182 49.75C182 47.6789 183.679 46 185.75 46C187.821 46 189.5 47.6789 189.5 49.75Z" fill="white"/>
<path d="M213.5 24.75C213.5 26.8211 211.821 28.5 209.75 28.5C207.679 28.5 206 26.8211 206 24.75C206 22.6789 207.679 21 209.75 21C211.821 21 213.5 22.6789 213.5 24.75Z" fill="white"/>
<path d="M213.5 49.75C213.5 51.8211 211.821 53.5 209.75 53.5C207.679 53.5 206 51.8211 206 49.75C206 47.6789 207.679 46 209.75 46C211.821 46 213.5 47.6789 213.5 49.75Z" fill="white"/>
<path d="M315 37.5C315 58.2107 298.211 75 277.5 75C256.789 75 240 58.2107 240 37.5C240 16.7893 256.789 0 277.5 0C298.211 0 315 16.7893 315 37.5Z" fill="#EE7975"/>
<path d="M281.5 24.75C281.5 26.8211 279.821 28.5 277.75 28.5C275.679 28.5 274 26.8211 274 24.75C274 22.6789 275.679 21 277.75 21C279.821 21 281.5 22.6789 281.5 24.75Z" fill="white"/>
<path d="M281.5 37.25C281.5 39.3211 279.821 41 277.75 41C275.679 41 274 39.3211 274 37.25C274 35.1789 275.679 33.5 277.75 33.5C279.821 33.5 281.5 35.1789 281.5 37.25Z" fill="white"/>
<path d="M269.5 24.75C269.5 26.8211 267.821 28.5 265.75 28.5C263.679 28.5 262 26.8211 262 24.75C262 22.6789 263.679 21 265.75 21C267.821 21 269.5 22.6789 269.5 24.75Z" fill="white"/>
<path d="M269.5 49.75C269.5 51.8211 267.821 53.5 265.75 53.5C263.679 53.5 262 51.8211 262 49.75C262 47.6789 263.679 46 265.75 46C267.821 46 269.5 47.6789 269.5 49.75Z" fill="white"/>
<path d="M293.5 24.75C293.5 26.8211 291.821 28.5 289.75 28.5C287.679 28.5 286 26.8211 286 24.75C286 22.6789 287.679 21 289.75 21C291.821 21 293.5 22.6789 293.5 24.75Z" fill="white"/>
<path d="M293.5 37.25C293.5 39.3211 291.821 41 289.75 41C287.679 41 286 39.3211 286 37.25C286 35.1789 287.679 33.5 289.75 33.5C291.821 33.5 293.5 35.1789 293.5 37.25Z" fill="white"/>
<path d="M293.5 49.75C293.5 51.8211 291.821 53.5 289.75 53.5C287.679 53.5 286 51.8211 286 49.75C286 47.6789 287.679 46 289.75 46C291.821 46 293.5 47.6789 293.5 49.75Z" fill="white"/>
</svg>
